<svg preserveAspectRatio="none" width="100%" height="100%" overflow="visible" style="display: block;" viewBox="0 0 43 39" fill="none" xmlns="http://www.w3.org/2000/svg">
<path id="Vector" d="M19.5455 39C16.8417 39 14.3008 38.4878 11.9227 37.4634C9.5447 36.439 7.47614 35.05 5.71705 33.2963C3.95796 31.5426 2.56567 29.4788 1.54018 27.105C0.5147 24.7312 0.0013055 22.1962 2.47411e-06 19.5C-0.00130056 16.8038 0.512093 14.2688 1.54018 11.895C2.56828 9.5212 3.96056 7.45745 5.71705 5.70375C7.47353 3.95005 9.54209 2.561 11.9227 1.5366C14.3034 0.5122 16.8443 0 19.5455 0C21.6629 0 23.6663 0.30875 25.5557 0.92625C27.4451 1.54375 29.1879 2.405 30.7841 3.51L27.95 6.38625C26.7121 5.60625 25.3928 4.9972 23.992 4.5591C22.5913 4.121 21.1091 3.9013 19.5455 3.9C15.2129 3.9 11.5233 5.4197 8.47687 8.4591C5.43038 11.4985 3.90779 15.1788 3.90909 19.5C3.9104 23.8212 5.43364 27.5022 8.47882 30.5429C11.524 33.5836 15.2129 35.1026 19.5455 35.1C20.5879 35.1 21.5977 35.0025 22.575 34.8075C23.5523 34.6125 24.497 34.3362 25.4091 33.9787L28.3409 36.9525C27.0053 37.6025 25.6045 38.1063 24.1386 38.4638C22.6727 38.8213 21.1417 39 19.5455 39ZM33.2273 35.1V29.25H27.3636V25.35H33.2273V19.5H37.1364V25.35H43V29.25H37.1364V35.1H33.2273ZM16.8091 28.47L8.50227 20.1825L11.2386 17.4525L16.8091 23.01L36.3545 3.46125L39.0909 6.19125L16.8091 28.47Z" fill="var(--fill-0, black)"/>
</svg>
