<svg preserveAspectRatio="none" width="100%" height="100%" overflow="visible" style="display: block;" viewBox="0 0 42 40" fill="none" xmlns="http://www.w3.org/2000/svg">
<path id="Vector" d="M28.8135 0.5H33.6973C34.7696 0.5 35.6396 1.3698 35.6396 2.43945V11.9287L35.8271 12.0781L41.1367 16.3203C41.3309 16.4808 41.4549 16.7108 41.4814 16.9609C41.5081 17.2128 41.4337 17.465 41.2754 17.6631C41.117 17.8611 40.887 17.9897 40.6348 18.0195C40.4139 18.0456 40.1912 17.9946 40.0049 17.877L39.9277 17.8223L38.4053 16.6045L37.5928 15.9551V37.5732H40.5352C40.7912 37.5733 41.0369 37.6748 41.2178 37.8555C41.3985 38.0361 41.4999 38.281 41.5 38.5361C41.5 38.7914 41.3987 39.0371 41.2178 39.2178C41.0369 39.3984 40.7912 39.4999 40.5352 39.5H1.46484C1.20879 39.4999 0.963112 39.3984 0.782227 39.2178C0.601325 39.0371 0.5 38.7914 0.5 38.5361C0.50012 38.281 0.601454 38.0361 0.782227 37.8555C0.963112 37.6748 1.20879 37.5733 1.46484 37.5732H4.40723V15.9541L3.59473 16.6045L2.06836 17.8262C1.86852 17.9854 1.61368 18.0595 1.35938 18.0312C1.1047 18.0029 0.871757 17.8745 0.711914 17.6748C0.55214 17.4752 0.478591 17.2206 0.506836 16.9668C0.53516 16.7129 0.663277 16.48 0.863281 16.3203L16.7354 3.6377C17.9457 2.67026 19.4496 2.14258 21 2.14258C22.5504 2.14258 24.0543 2.67026 25.2646 3.6377L26.0596 4.27344L26.8721 4.92285V2.43945C26.8721 1.36996 27.7414 0.500258 28.8135 0.5ZM21 23.8906C19.592 23.8906 18.6306 23.8931 17.9141 23.9883H17.9131C17.2211 24.0819 16.8994 24.2474 16.6807 24.4658C16.462 24.6843 16.2968 25.0054 16.2031 25.6963V25.6982C16.1079 26.4158 16.1045 27.374 16.1045 28.7803V37.5732H25.8955V28.7803C25.8955 27.3743 25.8921 26.414 25.7969 25.6982V25.6963C25.7036 25.0085 25.5405 24.6838 25.3154 24.4629C25.097 24.2485 24.7814 24.0822 24.0869 23.9883H24.0859C23.3676 23.8932 22.4081 23.8906 21 23.8906ZM21 9.28027C22.2923 9.28027 23.5317 9.79347 24.4453 10.7061C25.3589 11.6186 25.8721 12.8562 25.8721 14.1465C25.872 15.4368 25.3589 16.6744 24.4453 17.5869C23.5317 18.4995 22.2923 19.0117 21 19.0117C19.7077 19.0117 18.4683 18.4995 17.5547 17.5869C16.6411 16.6744 16.128 15.4368 16.1279 14.1465C16.1279 12.8562 16.6411 11.6186 17.5547 10.7061C18.4683 9.79347 19.7077 9.28027 21 9.28027ZM21 11.207C20.6137 11.207 20.2309 11.283 19.874 11.4307C19.5172 11.5783 19.1931 11.7955 18.9199 12.0684C18.6468 12.3412 18.4301 12.665 18.2822 13.0215C18.1343 13.3781 18.0586 13.7605 18.0586 14.1465C18.0586 14.5325 18.1344 14.9149 18.2822 15.2715C18.4301 15.628 18.6468 15.9518 18.9199 16.2246C19.193 16.4974 19.5173 16.7137 19.874 16.8613C20.2309 17.009 20.6137 17.085 21 17.085C21.78 17.085 22.5283 16.7757 23.0801 16.2246C23.6317 15.6735 23.9414 14.926 23.9414 14.1465C23.9414 13.3669 23.6317 12.6195 23.0801 12.0684C22.5283 11.5172 21.78 11.207 21 11.207ZM28.8027 6.46484L28.9902 6.61523L32.8975 9.7373L33.709 10.3857V2.42676H28.8027V6.46484ZM35.6631 14.4131L35.4746 14.2627L24.0586 5.14062H24.0576C23.1896 4.44705 22.1114 4.06934 21 4.06934C19.8883 4.06934 18.8095 4.44675 17.9414 5.14062L6.52539 14.2627L6.33691 14.4131V37.5732H14.1748V28.6826C14.1748 27.5384 14.1753 26.5687 14.2529 25.7715L14.291 25.4404C14.4125 24.5358 14.6779 23.7403 15.3154 23.1035C15.9529 22.4668 16.7511 22.2015 17.6553 22.0801H17.6562C18.5122 21.9646 19.5932 21.9639 20.9043 21.9639H21.0957C22.4068 21.9639 23.4878 21.9646 24.3438 22.0801H24.3447C25.2506 22.2015 26.047 22.4667 26.6846 23.1035C27.2424 23.6608 27.5154 24.3393 27.6562 25.1064L27.709 25.4404C27.8246 26.2952 27.8252 27.375 27.8252 28.6846V37.5732H35.6631V14.4131Z" fill="var(--fill-0, black)" stroke="var(--stroke-0, black)"/>
</svg>
