<svg preserveAspectRatio="none" width="100%" height="100%" overflow="visible" style="display: block;" viewBox="0 0 21 20" fill="none" xmlns="http://www.w3.org/2000/svg">
<g id="Group 31">
<path id="Vector" d="M1 6.5H20M1 6.5V17.5C1 17.7652 1.10536 18.0196 1.29289 18.2071C1.48043 18.3946 1.73478 18.5 2 18.5H19C19.2652 18.5 19.5196 18.3946 19.7071 18.2071C19.8946 18.0196 20 17.7652 20 17.5V6.5M1 6.5V2C1 1.73478 1.10536 1.48043 1.29289 1.29289C1.48043 1.10536 1.73478 1 2 1H19C19.2652 1 19.5196 1.10536 19.7071 1.29289C19.8946 1.48043 20 1.73478 20 2V6.5" stroke="var(--stroke-0, black)" stroke-width="2" stroke-linejoin="round"/>
<path id="Vector_2" d="M6.5 13L9.5 16L15.5 10" stroke="var(--stroke-0, black)" stroke-width="2" stroke-linecap="round" stroke-linejoin="round"/>
</g>
</svg>
