<svg preserveAspectRatio="none" width="100%" height="100%" overflow="visible" style="display: block;" viewBox="0 0 19 16" fill="none" xmlns="http://www.w3.org/2000/svg">
<path id="Vector" d="M16.2857 6C17.0053 5.99912 17.6952 5.71788 18.204 5.21798C18.7128 4.71807 18.9991 4.04031 19 3.33333V1.33333H16.9643C16.2695 1.33441 15.6019 1.59849 15.1002 2.07067C14.7489 1.44383 14.2329 0.921059 13.6059 0.556855C12.979 0.19265 12.2641 0.000349076 11.5357 0H9.5V2C9.50126 3.06049 9.93061 4.07719 10.6939 4.82706C11.4572 5.57694 12.492 5.99877 13.5714 6H14.25V14.6667H6.10714V11.3333H6.78571C7.50531 11.3325 8.19518 11.0512 8.70401 10.5513C9.21284 10.0514 9.4991 9.37364 9.5 8.66667V6.66667H7.46429C6.76954 6.66774 6.10193 6.93182 5.60025 7.404C5.24894 6.77716 4.73291 6.25439 4.10595 5.89019C3.47899 5.52598 2.76407 5.33368 2.03571 5.33333H0V7.33333C0.00125713 8.39382 0.430614 9.41052 1.19388 10.1604C1.95715 10.9103 2.992 11.3321 4.07143 11.3333H4.75V14.6667H0V16H19V14.6667H15.6071V6H16.2857ZM15.6071 4C15.6071 3.64638 15.7501 3.30724 16.0046 3.05719C16.2592 2.80714 16.6043 2.66667 16.9643 2.66667H17.6429V3.33333C17.6429 3.68696 17.4999 4.02609 17.2454 4.27614C16.9908 4.52619 16.6457 4.66667 16.2857 4.66667H15.6071V4ZM6.10714 9.33333C6.10714 8.97971 6.25013 8.64057 6.50464 8.39052C6.75915 8.14048 7.10435 8 7.46429 8H8.14286V8.66667C8.14286 9.02029 7.99987 9.35943 7.74536 9.60948C7.49085 9.85952 7.14565 10 6.78571 10H6.10714V9.33333ZM4.75 10H4.07143C3.35183 9.99912 2.66196 9.71788 2.15313 9.21798C1.6443 8.71807 1.35804 8.04031 1.35714 7.33333V6.66667H2.03571C2.75531 6.66755 3.44518 6.94878 3.95401 7.44869C4.46285 7.9486 4.7491 8.62636 4.75 9.33333V10ZM14.25 4.66667H13.5714C12.8518 4.66578 12.162 4.38455 11.6531 3.88464C11.1443 3.38474 10.858 2.70697 10.8571 2V1.33333H11.5357C12.2553 1.33422 12.9452 1.61545 13.454 2.11536C13.9628 2.61526 14.2491 3.29303 14.25 4V4.66667Z" fill="var(--fill-0, black)"/>
</svg>
