<svg preserveAspectRatio="none" width="100%" height="100%" overflow="visible" style="display: block;" viewBox="0 0 23 7" fill="none" xmlns="http://www.w3.org/2000/svg">
<path id="Vector" d="M3.25 6.85519C4.11195 6.85519 4.9386 6.49407 5.5481 5.85127C6.15759 5.20847 6.5 4.33665 6.5 3.4276C6.5 2.51854 6.15759 1.64672 5.5481 1.00392C4.9386 0.361121 4.11195 0 3.25 0C2.38805 0 1.5614 0.361121 0.951903 1.00392C0.34241 1.64672 0 2.51854 0 3.4276C0 4.33665 0.34241 5.20847 0.951903 5.85127C1.5614 6.49407 2.38805 6.85519 3.25 6.85519ZM14.625 3.4276C14.625 4.33665 14.2826 5.20847 13.6731 5.85127C13.0636 6.49407 12.237 6.85519 11.375 6.85519C10.513 6.85519 9.6864 6.49407 9.0769 5.85127C8.46741 5.20847 8.125 4.33665 8.125 3.4276C8.125 2.51854 8.46741 1.64672 9.0769 1.00392C9.6864 0.361121 10.513 0 11.375 0C12.237 0 13.0636 0.361121 13.6731 1.00392C14.2826 1.64672 14.625 2.51854 14.625 3.4276ZM19.5 6.85519C20.362 6.85519 21.1886 6.49407 21.7981 5.85127C22.4076 5.20847 22.75 4.33665 22.75 3.4276C22.75 2.51854 22.4076 1.64672 21.7981 1.00392C21.1886 0.361121 20.362 0 19.5 0C18.638 0 17.8114 0.361121 17.2019 1.00392C16.5924 1.64672 16.25 2.51854 16.25 3.4276C16.25 4.33665 16.5924 5.20847 17.2019 5.85127C17.8114 6.49407 18.638 6.85519 19.5 6.85519Z" fill="var(--fill-0, black)"/>
</svg>
