<svg preserveAspectRatio="none" width="100%" height="100%" overflow="visible" style="display: block;" viewBox="0 0 50 46" fill="none" xmlns="http://www.w3.org/2000/svg">
<path id="Vector" d="M16.0716 8.84581C16.0716 6.49975 17.0123 4.24979 18.6867 2.59088C20.3611 0.931966 22.6321 0 25.0001 0C27.3681 0 29.6391 0.931966 31.3135 2.59088C32.988 4.24979 33.9286 6.49975 33.9286 8.84581C33.9286 11.1919 32.988 13.4418 31.3135 15.1007C29.6391 16.7596 27.3681 17.6916 25.0001 17.6916C22.6321 17.6916 20.3611 16.7596 18.6867 15.1007C17.0123 13.4418 16.0716 11.1919 16.0716 8.84581ZM19.643 21.2299C18.2222 21.2299 16.8596 21.7891 15.8549 22.7845C14.8503 23.7798 14.2859 25.1298 14.2859 26.5374V35.3832C14.2859 38.1985 15.4147 40.8985 17.424 42.8891C19.4333 44.8798 22.1585 45.9982 25.0001 45.9982C27.8417 45.9982 30.5669 44.8798 32.5762 42.8891C34.5855 40.8985 35.7143 38.1985 35.7143 35.3832V26.5374C35.7143 25.1298 35.1499 23.7798 34.1453 22.7845C33.1406 21.7891 31.778 21.2299 30.3572 21.2299H19.643ZM10.9145 24.6621C10.7805 25.2784 10.7135 25.907 10.7145 26.5374V35.3832C10.7141 37.2769 11.0973 39.1515 11.8415 40.8958C12.5856 42.6401 13.6755 44.2188 15.0466 45.5382L14.6894 45.6373C11.9454 46.3646 9.0222 45.9827 6.56235 44.5754C4.1025 43.1681 2.30739 40.8507 1.57163 38.1325L0.182354 33.0019C0.000356299 32.3286 -0.0459984 31.6264 0.0459363 30.9354C0.137871 30.2443 0.366295 29.578 0.718164 28.9744C1.07003 28.3709 1.53846 27.8419 2.09669 27.4176C2.65492 26.9934 3.29202 26.6823 3.97162 26.502L10.9145 24.6621ZM34.9501 45.5382C36.3218 44.2191 37.4124 42.6406 38.1571 40.8962C38.9019 39.1519 39.2857 37.2772 39.2858 35.3832V26.5374C39.2834 25.8911 39.2167 25.266 39.0858 24.6621L46.025 26.502C46.705 26.6823 47.3425 26.9935 47.901 27.418C48.4595 27.8424 48.9281 28.3718 49.28 28.9758C49.6319 29.5797 49.8602 30.2465 49.9519 30.9379C50.0436 31.6294 49.9968 32.3319 49.8143 33.0055L48.4286 38.1325C48.0564 39.5085 47.4085 40.7962 46.5234 41.919C45.6383 43.0417 44.5342 43.9764 43.2768 44.6674C42.0195 45.3585 40.6345 45.7917 39.2046 45.9413C37.7747 46.0909 36.3254 45.9538 34.9501 45.5382ZM0.000211594 14.1533C0.000211594 12.2764 0.752758 10.4765 2.0923 9.14935C3.43184 7.82222 5.24864 7.07665 7.14304 7.07665C9.03743 7.07665 10.8542 7.82222 12.1938 9.14935C13.5333 10.4765 14.2859 12.2764 14.2859 14.1533C14.2859 16.0301 13.5333 17.8301 12.1938 19.1572C10.8542 20.4844 9.03743 21.2299 7.14304 21.2299C5.24864 21.2299 3.43184 20.4844 2.0923 19.1572C0.752758 17.8301 0.000211594 16.0301 0.000211594 14.1533ZM35.7143 14.1533C35.7143 12.2764 36.4669 10.4765 37.8064 9.14935C39.146 7.82222 40.9628 7.07665 42.8572 7.07665C44.7516 7.07665 46.5684 7.82222 47.9079 9.14935C49.2475 10.4765 50 12.2764 50 14.1533C50 16.0301 49.2475 17.8301 47.9079 19.1572C46.5684 20.4844 44.7516 21.2299 42.8572 21.2299C40.9628 21.2299 39.146 20.4844 37.8064 19.1572C36.4669 17.8301 35.7143 16.0301 35.7143 14.1533Z" fill="var(--fill-0, black)"/>
</svg>
