<svg preserveAspectRatio="none" width="100%" height="100%" overflow="visible" style="display: block;" viewBox="0 0 29 28" fill="none" xmlns="http://www.w3.org/2000/svg">
<path id="Vector" d="M3.82697 5.70251L6.91081 24.0007C7.05187 24.8384 7.49108 25.5997 8.15019 26.149C8.8093 26.6983 9.6455 26.9998 10.5098 27H15.3961M25.1716 5.70251L22.0892 24.0007C21.9481 24.8384 21.5089 25.5997 20.8498 26.149C20.1907 26.6983 19.3545 26.9998 18.4902 27H13.6039M11.6132 12.7319V19.9706M17.3868 12.7319V19.9706M1 5.70251H28M18.5529 5.70251V3.15054C18.5529 2.58018 18.3223 2.03318 17.9117 1.62988C17.5012 1.22657 16.9443 1 16.3637 1H12.6363C12.0557 1 11.4988 1.22657 11.0883 1.62988C10.6777 2.03318 10.4471 2.58018 10.4471 3.15054V5.70251H18.5529Z" stroke="var(--stroke-0, #E85D56)" stroke-width="1.5" stroke-linecap="round" stroke-linejoin="round"/>
</svg>
