<svg preserveAspectRatio="none" width="100%" height="100%" overflow="visible" style="display: block;" viewBox="0 0 16 15" fill="none" xmlns="http://www.w3.org/2000/svg">
<path id="Vector" d="M13.71 8.86603C13.3058 10.1148 12.5032 11.1965 11.4253 11.9455C10.3474 12.6945 9.05359 13.0693 7.74226 13.0125C6.43092 12.9558 5.17437 12.4706 4.16518 11.6313C3.156 10.7921 2.44986 9.64504 2.155 8.36603L3.29 8.14103L1.13 5.90603L0 8.79603L1.195 8.56103C1.52874 10.0624 2.34764 11.412 3.52515 12.4014C4.70267 13.3908 6.17325 13.9648 7.70965 14.0348C9.24604 14.1048 10.7627 13.6668 12.0253 12.7886C13.2879 11.9104 14.2261 10.6408 14.695 9.17603L13.71 8.86603ZM14.825 5.48103C14.4913 3.97968 13.6724 2.63004 12.4948 1.64066C11.3173 0.651285 9.84675 0.0772469 8.31035 0.00725557C6.77396 -0.0627358 5.25727 0.375216 3.99468 1.25343C2.73208 2.13165 1.79386 3.40125 1.325 4.86603L2.275 5.17603C2.67924 3.92726 3.48182 2.84551 4.55973 2.09655C5.63764 1.3476 6.93141 0.972769 8.24274 1.02951C9.55408 1.08626 10.8106 1.57144 11.8198 2.41071C12.829 3.24997 13.5351 4.39701 13.83 5.67603L12.695 5.90103L14.855 8.13103L16 5.24603L14.825 5.48103Z" fill="var(--fill-0, #494949)"/>
</svg>
