<svg preserveAspectRatio="none" width="100%" height="100%" overflow="visible" style="display: block;" viewBox="0 0 29 27" fill="none" xmlns="http://www.w3.org/2000/svg">
<path id="Vector" d="M14.645 22.8801L14.5 23.0272L14.3405 22.8801C7.453 16.5384 2.9 12.345 2.9 8.09264C2.9 5.14986 5.075 2.94278 7.975 2.94278C10.208 2.94278 12.383 4.41417 13.1515 6.41526H15.8485C16.617 4.41417 18.792 2.94278 21.025 2.94278C23.925 2.94278 26.1 5.14986 26.1 8.09264C26.1 12.345 21.547 16.5384 14.645 22.8801ZM21.025 0C18.502 0 16.0805 1.19183 14.5 3.06049C12.9195 1.19183 10.498 0 7.975 0C3.509 0 0 3.54605 0 8.09264C0 13.6398 4.93 18.1864 12.3975 25.0578L14.5 27L16.6025 25.0578C24.07 18.1864 29 13.6398 29 8.09264C29 3.54605 25.491 0 21.025 0Z" fill="var(--fill-0, #494949)"/>
</svg>
