<svg preserveAspectRatio="none" width="100%" height="100%" overflow="visible" style="display: block;" viewBox="0 0 23 26" fill="none" xmlns="http://www.w3.org/2000/svg">
<path id="Vector" d="M19.1667 18.3775C18.1956 18.3775 17.3267 18.7691 16.6622 19.3825L7.55167 13.9659C7.61556 13.6657 7.66667 13.3655 7.66667 13.0522C7.66667 12.739 7.61556 12.4388 7.55167 12.1386L16.56 6.7741C17.25 7.42671 18.1572 7.83133 19.1667 7.83133C21.2878 7.83133 23 6.08233 23 3.91566C23 1.749 21.2878 0 19.1667 0C17.0456 0 15.3333 1.749 15.3333 3.91566C15.3333 4.22892 15.3844 4.52912 15.4483 4.82932L6.44 10.1938C5.75 9.54116 4.84278 9.13655 3.83333 9.13655C1.71222 9.13655 0 10.8855 0 13.0522C0 15.2189 1.71222 16.9679 3.83333 16.9679C4.84278 16.9679 5.75 16.5633 6.44 15.9106L15.5378 21.3404C15.4739 21.6145 15.4356 21.9016 15.4356 22.1888C15.4356 24.2902 17.1094 26 19.1667 26C21.2239 26 22.8978 24.2902 22.8978 22.1888C22.8978 20.0873 21.2239 18.3775 19.1667 18.3775Z" fill="var(--fill-0, #494949)"/>
</svg>
