<svg preserveAspectRatio="none" width="100%" height="100%" overflow="visible" style="display: block;" viewBox="0 0 35 32" fill="none" xmlns="http://www.w3.org/2000/svg">
<path id="Vector" d="M5.24987 23.1675C6.55884 23.1675 7.81005 23.5668 8.77428 24.2981C9.74026 25.0277 10.4997 26.1706 10.4997 27.5838C10.4997 28.997 9.74026 30.1399 8.77428 30.8694C7.8118 31.6008 6.55884 32 5.24987 32C3.9409 32 2.68968 31.6008 1.72546 30.8694C0.759481 30.1417 0 28.997 0 27.5838C0 26.1706 0.759481 25.0277 1.72546 24.2981C2.68793 23.565 3.9409 23.1675 5.24987 23.1675ZM19.1148 9.55943e-07C21.717 9.55943e-07 24.0199 1.28424 25.4374 3.25741C27.0574 2.88036 28.7543 3.0351 30.2811 3.69911C31.808 4.36311 33.085 5.50172 33.9263 6.94918C34.7677 8.39663 35.1294 10.0774 34.9588 11.7467C34.7882 13.4161 34.0942 14.9869 32.9779 16.2305C32.9459 17.5306 32.5957 18.8024 31.9585 19.9327C31.3214 21.0629 30.4171 22.0165 29.3263 22.7083C28.2355 23.4002 26.992 23.8089 25.7068 23.898C24.4215 23.987 23.1344 23.7537 21.9602 23.2188C21.0235 23.9718 19.9278 24.4974 18.7578 24.7547C17.5878 25.012 16.3748 24.9942 15.2127 24.7027C14.0506 24.4113 12.9705 23.8539 12.0558 23.0737C11.1412 22.2935 10.4166 21.3114 9.938 20.2034C8.39427 19.5248 7.10917 18.3608 6.27434 16.8848C5.4395 15.4088 5.09967 13.6999 5.3055 12.013C5.51134 10.3262 6.25182 8.75163 7.41653 7.52426C8.58123 6.29688 10.1078 5.48241 11.7685 5.20232C12.3139 3.67786 13.3118 2.36031 14.6262 1.42932C15.9405 0.498328 17.5074 -0.000797276 19.113 9.55943e-07H19.1148Z" fill="var(--fill-0, #494949)"/>
</svg>
