<svg preserveAspectRatio="none" width="100%" height="100%" overflow="visible" style="display: block;" viewBox="0 0 47 47" fill="none" xmlns="http://www.w3.org/2000/svg">
<path id="Vector" fill-rule="evenodd" clip-rule="evenodd" d="M23.5 4.7C20.2118 4.6994 16.9809 5.56125 14.1299 7.19953C11.2789 8.8378 8.90738 11.1952 7.25216 14.0364C5.59693 16.8777 4.71586 20.1033 4.69689 23.3915C4.67791 26.6797 5.52169 29.9153 7.14402 32.7754C8.24055 31.3504 9.65013 30.1965 11.2638 29.4031C12.8774 28.6098 14.6519 28.1981 16.45 28.2H30.55C32.3481 28.1981 34.1226 28.6098 35.7362 29.4031C37.3499 30.1965 38.7594 31.3504 39.856 32.7754C41.4783 29.9153 42.3221 26.6797 42.3031 23.3915C42.2841 20.1033 41.4031 16.8777 39.7478 14.0364C38.0926 11.1952 35.7211 8.8378 32.8701 7.19953C30.0191 5.56125 26.7882 4.6994 23.5 4.7ZM42.166 37.7786C42.4606 37.3948 42.7426 37.0015 43.012 36.5989C45.6173 32.7277 47.0061 28.1662 47 23.5C47 10.5209 36.479 0 23.5 0C10.521 0 2.41003e-05 10.5209 2.41003e-05 23.5C-0.00738151 28.6624 1.69212 33.6824 4.83397 37.7786L4.82222 37.8209L5.65647 38.7914C7.8605 41.3682 10.5971 43.4365 13.6776 44.8536C16.758 46.2707 20.1092 47.003 23.5 47C24.0076 47 24.5121 46.9843 25.0134 46.953C29.2537 46.6856 33.341 45.2679 36.8362 42.8522C38.5078 41.6991 40.0229 40.3341 41.3435 38.7914L42.1778 37.8209L42.166 37.7786ZM23.5 9.4C21.6302 9.4 19.837 10.1428 18.5149 11.4649C17.1928 12.787 16.45 14.5802 16.45 16.45C16.45 18.3198 17.1928 20.113 18.5149 21.4351C19.837 22.7572 21.6302 23.5 23.5 23.5C25.3698 23.5 27.163 22.7572 28.4851 21.4351C29.8072 20.113 30.55 18.3198 30.55 16.45C30.55 14.5802 29.8072 12.787 28.4851 11.4649C27.163 10.1428 25.3698 9.4 23.5 9.4Z" fill="var(--fill-0, #494949)"/>
</svg>
