<svg preserveAspectRatio="none" width="100%" height="100%" overflow="visible" style="display: block;" viewBox="0 0 15 15" fill="none" xmlns="http://www.w3.org/2000/svg">
<path id="Vector" d="M13.1028 1H9.26125C9.14183 0.999914 9.02723 1.0471 8.9425 1.13125L1.2625 8.80938C1.09438 8.97832 1 9.20697 1 9.44531C1 9.68366 1.09438 9.9123 1.2625 10.0813L4.91875 13.7375C5.08775 13.9056 5.31645 14 5.55485 14C5.79324 14 6.02194 13.9056 6.19094 13.7375L13.8688 6.0625C13.9529 5.97777 14.0001 5.86317 14 5.74375V1.9C14.0006 1.78189 13.9778 1.66483 13.9329 1.55556C13.8881 1.44629 13.8221 1.34697 13.7387 1.26331C13.6553 1.17966 13.5562 1.11333 13.447 1.06814C13.3379 1.02295 13.2209 0.999794 13.1028 1Z" stroke="var(--stroke-0, #494949)" stroke-linecap="round" stroke-linejoin="round"/>
</svg>
