<svg preserveAspectRatio="none" width="100%" height="100%" overflow="visible" style="display: block;" viewBox="0 0 5 5" fill="none" xmlns="http://www.w3.org/2000/svg">
<path id="Vector" d="M2.5 5C1.83696 5 1.20107 4.73661 0.732233 4.26777C0.263392 3.79893 0 3.16304 0 2.5C0 1.83696 0.263392 1.20107 0.732233 0.732233C1.20107 0.263392 1.83696 0 2.5 0C3.16304 0 3.79893 0.263392 4.26777 0.732233C4.73661 1.20107 5 1.83696 5 2.5C5 3.16304 4.73661 3.79893 4.26777 4.26777C3.79893 4.73661 3.16304 5 2.5 5ZM2.5 1C2.10218 1 1.72064 1.15804 1.43934 1.43934C1.15804 1.72064 1 2.10218 1 2.5C1 2.89782 1.15804 3.27936 1.43934 3.56066C1.72064 3.84196 2.10218 4 2.5 4C2.89782 4 3.27936 3.84196 3.56066 3.56066C3.84196 3.27936 4 2.89782 4 2.5C4 2.10218 3.84196 1.72064 3.56066 1.43934C3.27936 1.15804 2.89782 1 2.5 1Z" fill="var(--fill-0, #494949)"/>
</svg>
