<svg preserveAspectRatio="none" width="100%" height="100%" overflow="visible" style="display: block;" viewBox="0 0 71 53" fill="none" xmlns="http://www.w3.org/2000/svg">
<path id="Vector" d="M39.0529 10.629C50.3007 10.629 56.6816 18.0364 57.6099 26.9839H57.8939C65.1321 26.9839 71 32.8089 71 39.992C71 47.1751 65.1321 53 57.8939 53H20.212C12.9738 53 7.10584 47.1769 7.10584 39.992C7.10584 32.9519 12.743 27.2171 19.7789 26.991L20.4977 26.9839C21.4314 17.9781 27.8052 10.629 39.0529 10.629ZM39.0529 15.0356C31.4917 15.0356 24.8978 21.1255 24.8978 29.5361C24.8978 30.8696 23.7334 31.9152 22.4005 31.9152H19.8783C15.2723 31.9152 11.5396 35.6489 11.5396 40.2551C11.5396 44.8596 15.2723 48.5933 19.8765 48.5933H58.2258C62.8317 48.5933 66.5627 44.8596 66.5627 40.2551C66.5627 35.6507 62.8317 31.9152 58.2276 31.9152H55.7054C54.3724 31.9152 53.2063 30.8696 53.2063 29.5379C53.2063 21.0177 46.6159 15.0356 39.0529 15.0356ZM28.398 2.39529e-06C31.1205 -0.00145038 33.8023 0.657964 36.2108 1.92107C38.6193 3.18417 40.6818 5.01283 42.2194 7.24847C40.1935 7.01049 38.1471 7.00042 36.119 7.21844C33.9755 5.36963 31.2346 4.35078 28.398 4.34838C22.5691 4.34838 17.601 8.62787 16.6071 14.4086L16.0497 17.6408C15.9793 18.0519 15.765 18.4249 15.4447 18.6939C15.1244 18.9628 14.7188 19.1103 14.2997 19.1102H10.8439C7.18216 19.1102 4.21447 22.1304 4.21447 25.8589C4.21447 27.8123 5.03094 29.5714 6.33197 30.8042C5.56055 31.9534 4.93795 33.1948 4.47894 34.4991C2.56728 33.0133 1.16935 30.9708 0.480155 28.6565C-0.209043 26.3422 -0.155138 23.8716 0.634349 21.5893C1.42384 19.307 2.90953 17.3268 4.88419 15.9249C6.85885 14.5231 9.22399 13.7695 11.6497 13.7693H11.9017C12.5874 9.91129 14.6165 6.41681 17.633 3.89896C20.6495 1.38111 24.4607 0.000726379 28.398 2.39529e-06Z" fill="var(--fill-0, black)"/>
</svg>
