<svg preserveAspectRatio="none" width="100%" height="100%" overflow="visible" style="display: block;" viewBox="0 0 20 18" fill="none" xmlns="http://www.w3.org/2000/svg">
<g id="Group 31">
<path id="Vector" d="M1 6.02857H18.3714M1 6.02857V16.0857C1 16.3282 1.09633 16.5608 1.26779 16.7322C1.43925 16.9037 1.6718 17 1.91429 17H17.4571C17.6996 17 17.9322 16.9037 18.1036 16.7322C18.2751 16.5608 18.3714 16.3282 18.3714 16.0857V6.02857M1 6.02857V1.91429C1 1.6718 1.09633 1.43925 1.26779 1.26779C1.43925 1.09633 1.6718 1 1.91429 1H17.4571C17.6996 1 17.9322 1.09633 18.1036 1.26779C18.2751 1.43925 18.3714 1.6718 18.3714 1.91429V6.02857" stroke="var(--stroke-0, #494949)" stroke-width="2" stroke-linejoin="round"/>
<path id="Vector_2" d="M6.02857 11.9714L8.77143 14.7143L14.2571 9.22857" stroke="var(--stroke-0, #494949)" stroke-width="2" stroke-linecap="round" stroke-linejoin="round"/>
</g>
</svg>
