<svg preserveAspectRatio="none" width="100%" height="100%" overflow="visible" style="display: block;" viewBox="0 0 61 61" fill="none" xmlns="http://www.w3.org/2000/svg">
<path id="Vector" d="M57.9469 15.5027C57.1412 12.5181 55.5671 9.79688 53.3816 7.61037C51.1961 5.42385 48.4756 3.84845 45.4914 3.04126M47.9907 18.1907C47.6551 16.9469 46.9992 15.8128 46.0885 14.9016C45.1778 13.9903 44.0441 13.3338 42.8004 12.9975M58 59C46.8 59 36.3722 55.7137 27.6215 50.0518C20.9491 45.7334 15.2667 40.051 10.9483 33.3785C5.08934 24.3313 1.98097 13.7786 2.00009 3H21.9773L25.4906 18.8333L19.5251 24.7987C23.4792 31.7572 29.2399 37.5179 36.1983 41.472L42.1638 35.5036L58 39.0257V59Z" stroke="var(--stroke-0, #E85D56)" stroke-width="4" stroke-linecap="square"/>
</svg>
