<svg preserveAspectRatio="none" width="100%" height="100%" overflow="visible" style="display: block;" viewBox="0 0 20 18" fill="none" xmlns="http://www.w3.org/2000/svg">
<g id="Group">
<path id="Vector" d="M2.75772 1.876C2.78795 1.6341 2.9055 1.41158 3.08827 1.25026C3.27104 1.08894 3.50644 0.999947 3.75022 1H15.9842C16.228 0.999947 16.4634 1.08894 16.6462 1.25026C16.8289 1.41158 16.9465 1.6341 16.9767 1.876L18.7267 15.876C18.7443 16.0167 18.7318 16.1596 18.6899 16.2951C18.6481 16.4306 18.5779 16.5556 18.484 16.6619C18.3902 16.7682 18.2748 16.8533 18.1455 16.9116C18.0162 16.9699 17.876 17 17.7342 17H2.00022C1.85841 17 1.71821 16.9699 1.58894 16.9116C1.45967 16.8533 1.34427 16.7682 1.25041 16.6619C1.15654 16.5556 1.08636 16.4306 1.04452 16.2951C1.00268 16.1596 0.990134 16.0167 1.00772 15.876L2.75772 1.876Z" stroke="var(--stroke-0, #494949)" stroke-width="2" stroke-linejoin="round"/>
<path id="Vector_2" d="M5.36722 6C5.36722 6 6.36722 8 9.86722 8C13.3672 8 14.3672 6 14.3672 6" stroke="var(--stroke-0, #494949)" stroke-width="2" stroke-linecap="round" stroke-linejoin="round"/>
</g>
</svg>
