<svg preserveAspectRatio="none" width="100%" height="100%" overflow="visible" style="display: block;" viewBox="0 0 76 59" fill="none" xmlns="http://www.w3.org/2000/svg">
<g id="Group 7">
<path id="Vector" d="M62.0425 25.4692C62.3527 25.3087 62.7078 25.2618 63.0464 25.3335L63.191 25.3715C66.9549 26.57 69.7887 28.1548 71.6832 30.2368C73.5929 32.3358 74.5044 34.8921 74.5044 37.9272C74.5044 41.9075 72.0007 45.7908 67.6607 48.9692V55.8911L67.6519 56.0581C67.6333 56.2236 67.587 56.3854 67.5152 56.5366C67.4194 56.738 67.2799 56.9161 67.107 57.0571C66.9345 57.198 66.7324 57.2985 66.5162 57.352C66.301 57.4052 66.0772 57.4091 65.8599 57.3657V57.3667C65.8587 57.3664 65.8574 57.366 65.856 57.3657H65.855V57.3647C65.5922 57.3122 62.0442 56.5342 58.8072 53.2739C58.633 53.3186 58.4577 53.3651 58.2818 53.4145L58.2749 53.4165C57.3081 53.6768 56.2143 53.975 55.0357 53.9751C50.1219 53.9751 46.614 52.9015 43.022 50.2612V50.2602C42.7003 50.0235 42.4855 49.6687 42.4253 49.2739C42.3653 48.8791 42.4641 48.4764 42.7007 48.1547C42.9373 47.8332 43.2924 47.6192 43.6871 47.559C44.0818 47.4989 44.4845 47.5979 44.8062 47.8344L45.3716 48.2348C48.1977 50.1635 51.0297 50.9633 55.0357 50.9633C55.7873 50.9633 56.6003 50.748 57.4927 50.5083H57.4937C57.9935 50.3744 58.5139 50.2344 59.0279 50.1352H59.0289C59.285 50.0861 59.5495 50.1051 59.7964 50.1889C60.0433 50.2728 60.2648 50.4188 60.438 50.6137C61.6149 51.9391 63.0497 53.0052 64.6499 53.7514V48.1919C64.65 47.9476 64.7099 47.7068 64.8238 47.4907C64.9375 47.2748 65.1021 47.0898 65.3033 46.9516L65.7623 46.6274C66.8695 45.8247 68.2041 44.7066 69.3082 43.3422C70.5715 41.781 71.4937 39.9474 71.4937 37.9272C71.4937 35.5727 70.7974 33.6939 69.3423 32.143C67.8681 30.5718 65.5691 29.2892 62.2779 28.2407V28.2397C61.8978 28.1186 61.5813 27.8518 61.398 27.4975C61.2146 27.143 61.1794 26.7304 61.3003 26.3501C61.4213 25.9697 61.6881 25.6527 62.0425 25.4692Z" fill="var(--fill-0, #E85D56)" stroke="var(--stroke-0, #E85D56)" stroke-width="1.3"/>
<path id="Vector_2" d="M30.5311 1.34964C46.6881 1.34964 59.107 11.4604 59.1072 25.0957C59.1072 31.6954 56.2931 37.2304 51.3963 41.1006C46.5121 44.9609 39.5924 47.1396 31.3885 47.1397C29.2261 47.1397 26.8724 46.783 24.7879 46.4033C19.7607 51.7828 14.0137 54.3985 13.7352 54.5225H13.7342C13.5052 54.6237 13.2542 54.6672 13.0047 54.6475C12.7553 54.6278 12.5146 54.546 12.3045 54.4102C12.0943 54.2742 11.9209 54.0877 11.8006 53.8682C11.6802 53.6487 11.6166 53.4027 11.615 53.1524V42.1289C6.85559 38.7056 1.34948 33.0387 1.34941 25.0996C1.34941 11.6666 14.3075 1.34966 30.5311 1.34964ZM30.5311 4.36038C15.7053 4.3604 4.36015 13.5936 4.36015 25.0996C4.36023 31.9847 9.49762 37.0296 13.9725 40.1084L14.116 40.2207C14.2525 40.3412 14.3666 40.4855 14.4519 40.6475C14.5658 40.8636 14.6257 41.1044 14.6258 41.3487V50.6397C16.7722 49.3827 20.1681 47.0939 23.1141 43.7715L23.1189 43.7657H23.1199C23.2934 43.5747 23.5123 43.4307 23.7566 43.3477C23.9399 43.2854 24.1328 43.2587 24.325 43.2686L24.5164 43.291L24.5232 43.292C26.7199 43.7112 29.2132 44.1289 31.3865 44.1289C38.8638 44.1289 45.052 42.1788 49.3553 38.8389C53.6452 35.5093 56.0955 30.7759 56.0955 25.0957C56.0953 13.381 45.2476 4.36038 30.5311 4.36038Z" fill="var(--fill-0, #E85D56)" stroke="var(--stroke-0, #E85D56)" stroke-width="1.3"/>
<path id="Vector_3" d="M18.2537 21.187C20.4996 21.1871 22.3249 23.0124 22.325 25.2583C22.325 27.5042 20.4996 29.3304 18.2537 29.3305C16.0077 29.3305 14.1814 27.5043 14.1814 25.2583C14.1815 23.0123 16.0078 21.187 18.2537 21.187ZM30.2293 21.0239C32.4753 21.0239 34.3006 22.8502 34.3006 25.0962C34.3005 27.342 32.4752 29.1674 30.2293 29.1674C27.9834 29.1674 26.1581 27.3421 26.158 25.0962C26.158 22.8501 27.9833 21.0239 30.2293 21.0239ZM42.2049 21.0239C44.4509 21.0239 46.2762 22.8501 46.2762 25.0962C46.276 27.3421 44.4508 29.1674 42.2049 29.1674C39.959 29.1674 38.1337 27.3421 38.1336 25.0962C38.1336 22.8501 39.9589 21.0239 42.2049 21.0239ZM18.2527 24.1987C17.9906 24.2178 17.7445 24.3335 17.5623 24.5239C17.3733 24.7216 17.2674 24.9847 17.2674 25.2583C17.2674 25.5318 17.3732 25.7949 17.5623 25.9926C17.7445 26.1831 17.9906 26.2977 18.2527 26.3169C18.5155 26.2981 18.7626 26.1835 18.9451 25.9926C19.1341 25.7949 19.2391 25.5318 19.2391 25.2583C19.239 24.9848 19.1341 24.7216 18.9451 24.5239C18.7626 24.333 18.5155 24.2175 18.2527 24.1987ZM30.2293 24.0366C29.9668 24.0555 29.7203 24.1711 29.5379 24.3618C29.3489 24.5595 29.243 24.8226 29.243 25.0962C29.243 25.3697 29.3489 25.6329 29.5379 25.8305C29.7202 26.0211 29.9669 26.1358 30.2293 26.1548C30.4917 26.1358 30.7384 26.0211 30.9207 25.8305C31.1097 25.6329 31.2156 25.3696 31.2156 25.0962C31.2156 24.8227 31.1097 24.5595 30.9207 24.3618C30.7384 24.1711 30.4917 24.0556 30.2293 24.0366ZM42.2049 24.0366C41.9424 24.0555 41.6958 24.1711 41.5135 24.3618C41.3245 24.5595 41.2186 24.8226 41.2186 25.0962C41.2186 25.3696 41.3245 25.6329 41.5135 25.8305C41.6958 26.0211 41.9425 26.1358 42.2049 26.1548C42.4673 26.1358 42.7139 26.0211 42.8963 25.8305C43.0853 25.6329 43.1912 25.3696 43.1912 25.0962C43.1912 24.8226 43.0853 24.5595 42.8963 24.3618C42.7139 24.1711 42.4674 24.0555 42.2049 24.0366Z" fill="var(--fill-0, #E85D56)" stroke="var(--stroke-0, #E85D56)" stroke-width="1.3"/>
</g>
</svg>
