<svg preserveAspectRatio="none" width="100%" height="100%" overflow="visible" style="display: block;" viewBox="0 0 49 70" fill="none" xmlns="http://www.w3.org/2000/svg">
<g id="Group 10">
<path id="Vector" d="M24.2413 0.558673C27.8776 0.543675 31.3693 1.94421 33.9479 4.44934C36.5261 6.9542 37.9811 10.3584 37.9957 13.9112L38.0818 34.7743C38.0924 38.3259 36.6647 41.7393 34.1082 44.2644C31.5511 46.7901 28.0732 48.2192 24.438 48.238C20.803 48.249 17.3139 46.8486 14.7363 44.3443C12.2394 41.9185 10.7955 38.6502 10.6908 35.2193L10.6845 34.8864L10.5985 14.0242L10.601 13.6912C10.6738 10.2584 12.0906 6.97637 14.5682 4.52927C17.1259 2.00313 20.6052 0.57376 24.2413 0.558673Z" fill="var(--fill-0, #E85D56)" stroke="var(--stroke-0, #494949)"/>
<path id="Vector_2" d="M21.5039 58.5398L21.0681 58.485L20.944 58.4689L20.945 58.4689C15.3007 57.6407 10.1393 54.8131 6.39636 50.4985C2.77027 46.3186 0.707677 41.0111 0.552158 35.4854L0.543115 34.9503L0.514373 27.9816C0.511177 27.1899 0.821819 26.4295 1.37773 25.8677C1.93384 25.3058 2.69033 24.9882 3.47958 24.985C4.26871 24.9818 5.02702 25.2931 5.58766 25.8503C6.14828 26.4076 6.46509 27.1653 6.46842 27.957L6.49717 34.9267C6.51682 39.6797 8.41989 44.2304 11.7877 47.5778C15.1557 50.9253 19.7137 52.7952 24.4577 52.7756C29.2015 52.756 33.7431 50.8486 37.0834 47.4735C40.4235 44.0984 42.2889 39.5322 42.2693 34.7792L42.2406 27.8095C42.2374 27.0178 42.548 26.2574 43.1039 25.6956C43.66 25.1337 44.4165 24.8161 45.2058 24.8129C45.9949 24.8097 46.7532 25.121 47.3139 25.6782C47.8745 26.2355 48.1913 26.9932 48.1946 27.7849L48.2234 34.7566C48.2529 46.7299 39.4884 56.6772 27.8844 58.4578L27.458 58.5231L27.4773 63.2174L38.4089 63.1723C38.7997 63.1707 39.1877 63.2457 39.5494 63.3941C39.9111 63.5426 40.2403 63.7617 40.5179 64.0376C40.7954 64.3135 41.0163 64.6413 41.1674 65.0027C41.3186 65.3642 41.397 65.7523 41.3987 66.1444C41.4003 66.5364 41.325 66.9251 41.1768 67.2879C41.0286 67.6506 40.8107 67.981 40.5353 68.2593C40.2601 68.5374 39.9326 68.7583 39.5722 68.9097C39.2117 69.0611 38.8243 69.1394 38.4335 69.141L10.6163 69.2557C10.2256 69.2573 9.8384 69.1822 9.47674 69.0339C9.11512 68.8855 8.78584 68.6672 8.50826 68.3914C8.23062 68.1154 8.00996 67.7868 7.85876 67.4253C7.70756 67.0637 7.62813 66.6757 7.62651 66.2836C7.62492 65.8916 7.70115 65.5029 7.84933 65.1401C7.99754 64.7775 8.21558 64.4479 8.49084 64.1697C8.7662 63.8915 9.09349 63.6697 9.45399 63.5183C9.81438 63.367 10.201 63.2886 10.5917 63.287L21.5233 63.2419L21.5039 58.5398Z" fill="var(--fill-0, #E85D56)" stroke="var(--stroke-0, #494949)"/>
</g>
</svg>
