<svg preserveAspectRatio="none" width="100%" height="100%" overflow="visible" style="display: block;" viewBox="0 0 28 28" fill="none" xmlns="http://www.w3.org/2000/svg">
<g id="Group">
<path id="Vector" opacity="0.987" fill-rule="evenodd" clip-rule="evenodd" d="M11.9239 0.121551C13.3745 -0.0405171 14.2329 -0.0405171 15.7915 0.121551C18.5506 0.529913 21.1082 1.80523 23.0946 3.76309C21.7523 5.03189 20.4276 6.31922 19.1209 7.62471C16.6185 5.50382 13.8254 5.01428 10.7414 6.15609C8.47911 7.19653 6.90378 8.88258 6.01541 11.2142C4.56368 10.1334 3.13086 9.02746 1.7176 7.89683C1.61938 7.84513 1.5072 7.8262 1.39746 7.8428C3.64241 3.51431 7.15055 0.939896 11.9219 0.11955" fill="var(--fill-0, #F44336)"/>
<path id="Vector_2" opacity="0.997" fill-rule="evenodd" clip-rule="evenodd" d="M1.39309 7.84269C1.50647 7.82535 1.61385 7.84336 1.71523 7.89671C3.12849 9.02735 4.56131 10.1333 6.01304 11.2141C5.78459 12.1226 5.64059 13.0503 5.58286 13.9853C5.63221 14.8897 5.7756 15.7774 6.01304 16.6484L1.50114 20.2399C-0.463691 16.1342 -0.499706 12.0018 1.39309 7.84269Z" fill="var(--fill-0, #FFC107)"/>
<path id="Vector_3" opacity="0.999" fill-rule="evenodd" clip-rule="evenodd" d="M22.8798 24.5898C21.4749 23.3509 20.0041 22.1887 18.4739 21.1084C20.0079 20.0253 20.939 18.5393 21.2671 16.6505H13.7499V11.4303C18.0851 11.3943 22.4183 11.431 26.7494 11.5403C27.5711 16.0022 26.622 20.0253 23.9022 23.6094C23.5788 23.9532 23.2362 24.2804 22.8798 24.5898Z" fill="var(--fill-0, #448AFF)"/>
<path id="Vector_4" opacity="0.993" fill-rule="evenodd" clip-rule="evenodd" d="M6.01288 16.6505C7.65357 20.7282 10.6615 22.6317 15.0367 22.3609C16.2649 22.2187 17.4424 21.7897 18.4741 21.1084C20.0054 22.1915 21.4741 23.352 22.88 24.5899C20.6523 26.5916 17.8121 27.7793 14.8226 27.9593C14.1434 28.0136 13.4609 28.0136 12.7817 27.9593C7.68892 27.359 3.92867 24.7859 1.50098 20.24L6.01288 16.6505Z" fill="var(--fill-0, #43A047)"/>
</g>
</svg>
