<svg preserveAspectRatio="none" width="100%" height="100%" overflow="visible" style="display: block;" viewBox="0 0 61 61" fill="none" xmlns="http://www.w3.org/2000/svg">
<path id="Vector" d="M0 56.6429H17.4286V61H0V56.6429ZM32.6786 58.8214C32.3522 58.8212 32.0301 58.7477 31.736 58.6063C31.4419 58.4649 31.1833 58.2592 30.9793 58.0045L22.9186 47.9286H0V43.5714H23.9643C24.2906 43.5716 24.6128 43.6452 24.9069 43.7866C25.201 43.928 25.4596 44.1336 25.6636 44.3884L32.5195 52.9545L43.9374 35.8266C44.1308 35.5368 44.3908 35.2975 44.6957 35.1289C45.0006 34.9603 45.3415 34.8673 45.6898 34.8577C46.0381 34.8481 46.3836 34.9222 46.6973 35.0737C47.011 35.2253 47.2838 35.4498 47.4929 35.7286L53.375 43.5714H61V47.9286H52.2857C51.9475 47.9286 51.6139 47.8498 51.3114 47.6986C51.0089 47.5473 50.7458 47.3277 50.5429 47.0571L45.8546 40.8046L34.4911 57.852C34.3009 58.137 34.0461 58.3732 33.7474 58.5413C33.4488 58.7093 33.1146 58.8046 32.7722 58.8193L32.6786 58.8214ZM19.6071 30.5V19.6071H21.7857C24.096 19.6043 26.3108 18.6852 27.9445 17.0516C29.5781 15.418 30.4971 13.2031 30.5 10.8929V4.35714H23.9643C21.7335 4.36125 19.5901 5.22501 17.9798 6.76882C16.8521 4.72 15.1955 3.01122 13.1826 1.82066C11.1698 0.630096 8.87433 0.00135547 6.53571 0H0V6.53571C0.00403605 10.0012 1.3825 13.3237 3.83299 15.7742C6.28348 18.2246 9.60591 19.6031 13.0714 19.6071H15.25V30.5H0V34.8571H30.5V30.5H19.6071ZM23.9643 8.71429H26.1429V10.8929C26.1429 12.0484 25.6838 13.1567 24.8667 13.9738C24.0496 14.7909 22.9413 15.25 21.7857 15.25H19.6071V13.0714C19.6071 11.9158 20.0662 10.8076 20.8833 9.99046C21.7004 9.17334 22.8087 8.71429 23.9643 8.71429ZM13.0714 15.25C10.7611 15.2471 8.5463 14.3281 6.91268 12.6945C5.27906 11.0608 4.36003 8.846 4.35714 6.53571V4.35714H6.53571C8.846 4.36003 11.0608 5.27906 12.6945 6.91268C14.3281 8.5463 15.2471 10.7611 15.25 13.0714V15.25H13.0714Z" fill="var(--fill-0, #E85D56)"/>
</svg>
