<svg preserveAspectRatio="none" width="100%" height="100%" overflow="visible" style="display: block;" viewBox="0 0 60 61" fill="none" xmlns="http://www.w3.org/2000/svg">
<path id="Vector" fill-rule="evenodd" clip-rule="evenodd" d="M38.2263 0.0132879C31.5368 -0.309331 26.8609 5.28906 28.2234 11.7564L28.3244 12.2267C28.5524 13.2664 29.4057 14.2167 30.6903 14.279C37.3798 14.6016 42.0557 9.0019 40.6932 2.53595L40.5922 2.06423C40.3628 1.02588 39.5096 0.0756429 38.2263 0.0132879ZM57.1289 5.7513C57.7146 5.93352 58.2516 6.24411 58.7001 6.66013C59.1487 7.07615 59.4973 7.58694 59.7203 8.15476C59.9432 8.72257 60.0348 9.33289 59.9882 9.94057C59.9416 10.5483 59.7581 11.1378 59.4511 11.6655L59.0825 12.2986C56.475 16.7827 50.8449 18.9611 45.8673 17.4144L45.1656 17.1962C44.58 17.0138 44.0432 16.7031 43.5948 16.287C43.1464 15.8709 42.7979 15.3601 42.5751 14.7923C42.3523 14.2245 42.2608 13.6143 42.3075 13.0066C42.3542 12.399 42.5378 11.8096 42.8448 11.2819L43.212 10.6489C45.8195 6.16474 51.4496 3.98639 56.4272 5.53306L57.1289 5.7513ZM38.0078 22.8813C42.711 18.9258 49.8373 20.0482 53.2121 25.1342L53.4579 25.507C54.0381 26.3989 54.0722 27.6962 53.0538 28.5515C48.3506 32.507 41.2256 31.3846 37.8495 26.2986L37.6037 25.9259C37.0222 25.0339 36.9894 23.7367 38.0078 22.8813ZM25.7073 32.1614C30.7545 27.7626 38.345 28.6112 41.8304 34.1133L42.0816 34.5119C42.6823 35.4797 42.6154 36.7824 41.6284 37.6432C36.5812 42.0433 28.9906 41.1947 25.5053 35.6912L25.2541 35.2927C24.6534 34.3248 24.7203 33.0221 25.7073 32.1614ZM22.5114 8.25093C21.6185 7.279 20.297 7.22749 19.31 7.73311L18.8513 7.97033C12.6068 11.2331 11.1583 18.8038 15.9406 24.0145C16.8335 24.9865 18.1564 25.038 19.1421 24.5324L19.6021 24.2938C25.8466 21.0323 27.2951 13.4603 22.5114 8.25093ZM7.6047 18.8825C13.9092 22.3689 14.9768 30.1308 10.0184 35.2791L9.65251 35.6573C8.87024 36.4557 7.58832 36.8271 6.42106 36.1805C0.116545 32.6927 -0.951046 24.9322 4.00738 19.7839L4.37326 19.407C5.15415 18.6073 6.43608 18.2359 7.60333 18.8825M32.5675 45.0783C28.6698 39.099 20.8172 38.3372 15.9434 43.6211C15.041 44.5998 15.1079 45.9242 15.7099 46.8636C15.7964 46.9991 15.8915 47.146 15.9953 47.3041C19.8943 53.2848 27.7456 54.0466 32.6207 48.7627C33.5218 47.784 33.4549 46.4583 32.8528 45.5202C32.7663 45.3847 32.6712 45.2365 32.5675 45.0783ZM38.3205 19.9167C38.6236 19.7266 38.8861 19.4791 39.0929 19.1882C39.2997 18.8974 39.4468 18.5689 39.5258 18.2217C39.6048 17.8744 39.6141 17.515 39.5532 17.1642C39.4923 16.8133 39.3625 16.4778 39.171 16.1768C38.9795 15.8758 38.7302 15.6151 38.4373 15.4098C38.1444 15.2044 37.8136 15.0584 37.4638 14.98C37.1141 14.9015 36.7522 14.8923 36.3988 14.9528C36.0455 15.0132 35.7075 15.1422 35.4044 15.3323C27.7747 20.1263 20.9178 26.0366 15.0655 32.8635C9.59926 39.2251 5.88454 45.3237 3.53229 49.8431C2.60144 51.6232 1.74607 53.4412 0.968434 55.2924C0.676299 55.9988 0.403611 56.7129 0.150675 57.4341C-0.34899 58.8466 0.437368 60.3865 1.86947 60.8609C3.29884 61.334 4.82924 60.56 5.33163 59.1489C5.54278 58.5497 5.77032 57.9546 6.01423 57.3636C6.5098 56.1735 7.28388 54.4438 8.38287 52.3318C11.3754 46.6243 15.011 41.2727 19.2199 36.3798C24.716 29.9673 31.156 24.4157 38.3218 19.9127" fill="var(--fill-0, #494949)"/>
</svg>
